<svg width="360" height="360" viewBox="0 0 360 360" fill="none" xmlns="http://www.w3.org/2000/svg">
<path d="M128.4 210C128.4 200 125.9 192 120.9 186C116.1 180 109.5 177 101.1 177C92.6996 177 85.7996 180 80.3996 186C75.1996 192 72.5996 200 72.5996 210V277.5C72.5996 282.5 70.0996 285 65.0996 285H34.7996C29.9996 285 27.5996 282.5 27.5996 277.5V142.5C27.5996 137.5 29.9996 135 34.7996 135H67.7996C70.1996 135 71.6996 135.8 72.2996 137.4C81.0996 133.8 90.6996 132 101.1 132C118.7 132 133.5 136.8 145.5 146.4C147.5 147.8 149.4 148.5 151.2 148.5C153.4 148.5 155.3 147.8 156.9 146.4C169.3 136.8 184.3 132 201.9 132C212.9 132 222.8 134 231.6 138C240.6 141.8 248.2 147.2 254.4 154.2C260.8 161 265.7 169.2 269.1 178.8C272.5 188.4 274.2 198.8 274.2 210V277.5C274.2 282.5 271.7 285 266.7 285H236.7C231.7 285 229.2 282.5 229.2 277.5V210C229.2 200 226.7 192 221.7 186C216.9 180 210.3 177 201.9 177C193.5 177 186.6 180 181.2 186C176 192 173.4 200 173.4 210V277.5C173.4 282.5 170.9 285 165.9 285H135.9C130.9 285 128.4 282.5 128.4 277.5V210Z" fill="#9B62C4"/>
<path d="M331.199 277.5C331.199 282.5 328.699 285 323.699 285H293.399C288.599 285 286.199 282.5 286.199 277.5V142.5C286.199 137.5 288.599 135 293.399 135H326.399C329.599 135 331.199 136.6 331.199 139.8V277.5ZM287.999 97.8C287.999 90.8 289.999 85.3 293.999 81.3C298.199 77.1 303.499 75 309.899 75C316.899 75 322.399 77.1 326.399 81.3C330.399 85.3 332.399 90.8 332.399 97.8C332.399 104.2 330.399 109.4 326.399 113.4C322.399 117.4 316.899 119.4 309.899 119.4C303.499 119.4 298.199 117.4 293.999 113.4C289.999 109.4 287.999 104.2 287.999 97.8Z" fill="#9B62C4"/>
</svg>
