<svg width="1235" height="213" viewBox="0 0 1235 213" fill="none" xmlns="http://www.w3.org/2000/svg">
<path d="M1233.21 202.5C1233.21 207.5 1230.71 210 1225.71 210H1195.41C1190.61 210 1188.21 207.5 1188.21 202.5V67.5C1188.21 62.5 1190.61 60 1195.41 60H1228.41C1231.61 60 1233.21 61.6 1233.21 64.8V202.5ZM1190.01 22.8C1190.01 15.8 1192.01 10.3 1196.01 6.30001C1200.21 2.10001 1205.51 0 1211.91 0C1218.91 0 1224.41 2.10001 1228.41 6.30001C1232.41 10.3 1234.41 15.8 1234.41 22.8C1234.41 29.2 1232.41 34.4 1228.41 38.4C1224.41 42.4 1218.91 44.4 1211.91 44.4C1205.51 44.4 1200.21 42.4 1196.01 38.4C1192.01 34.4 1190.01 29.2 1190.01 22.8Z" fill="#9B62C4"/>
<path d="M1030.69 135C1030.69 125 1028.19 117 1023.19 111C1018.39 105 1011.79 102 1003.39 102C994.995 102 988.095 105 982.695 111C977.495 117 974.895 125 974.895 135V202.5C974.895 207.5 972.395 210 967.395 210H937.095C932.295 210 929.895 207.5 929.895 202.5V67.5C929.895 62.5 932.295 60 937.095 60H970.095C972.495 60 973.995 60.8 974.595 62.4C983.395 58.8 992.995 57 1003.39 57C1020.99 57 1035.79 61.8 1047.79 71.4C1049.79 72.8 1051.69 73.5 1053.49 73.5C1055.69 73.5 1057.59 72.8 1059.19 71.4C1071.59 61.8 1086.59 57 1104.19 57C1115.19 57 1125.09 59 1133.89 63C1142.89 66.8 1150.49 72.2 1156.69 79.2C1163.09 86 1167.99 94.2 1171.39 103.8C1174.79 113.4 1176.49 123.8 1176.49 135V202.5C1176.49 207.5 1173.99 210 1168.99 210H1138.99C1133.99 210 1131.49 207.5 1131.49 202.5V135C1131.49 125 1128.99 117 1123.99 111C1119.19 105 1112.59 102 1104.19 102C1095.79 102 1088.89 105 1083.49 111C1078.29 117 1075.69 125 1075.69 135V202.5C1075.69 207.5 1073.19 210 1068.19 210H1038.19C1033.19 210 1030.69 207.5 1030.69 202.5V135Z" fill="#9B62C4"/>
<path d="M872.167 67.5C872.167 62.5 874.667 60 879.667 60H909.667C914.667 60 917.167 62.5 917.167 67.5V202.5C917.167 207.5 914.767 210 909.967 210H879.667C874.667 210 872.167 207.5 872.167 202.5V200.4C872.167 197.4 871.567 195.9 870.367 195.9C869.367 195.9 868.067 196.6 866.467 198C860.267 202.8 853.267 206.5 845.467 209.1C837.667 211.7 829.067 213 819.667 213C808.467 213 798.267 211.1 789.067 207.3C780.067 203.3 772.367 197.9 765.967 191.1C759.567 184.1 754.567 175.8 750.967 166.2C747.567 156.6 745.867 146.2 745.867 135C745.867 123.8 747.567 113.4 750.967 103.8C754.567 94.2 759.567 86 765.967 79.2C772.367 72.2 780.067 66.8 789.067 63C798.267 59 808.467 57 819.667 57C829.067 57 837.667 58.3 845.467 60.9C853.267 63.5 860.267 67.2 866.467 72C868.067 73.4 869.367 74.1 870.367 74.1C871.567 74.1 872.167 72.6 872.167 69.6V67.5ZM819.967 170.7C824.367 170.7 828.367 169.8 831.967 168C835.567 166 838.667 163.4 841.267 160.2C843.867 157 845.867 153.3 847.267 149.1C848.867 144.7 849.667 140 849.667 135C849.667 125 846.867 117 841.267 111C835.867 105 828.767 102 819.967 102C810.967 102 803.867 105 798.667 111C793.467 117 790.867 125 790.867 135C790.867 145 793.467 153.5 798.667 160.5C803.867 167.3 810.967 170.7 819.967 170.7Z" fill="#0F1E13"/>
<path d="M735.771 102.9C729.371 104.5 724.271 108.2 720.471 114C716.671 119.6 714.771 126.6 714.771 135V202.5C714.771 207.5 712.271 210 707.271 210H676.971C672.171 210 669.771 207.5 669.771 202.5V67.5004C669.771 62.5004 672.171 60.0004 676.971 60.0004H709.971C713.171 60.0004 714.771 61.6004 714.771 64.8004C718.171 63.6004 721.571 62.4004 724.971 61.2004C728.371 59.8004 731.971 58.7004 735.771 57.9004C740.771 56.9004 743.271 59.1004 743.271 64.5004V94.5004C743.271 96.9004 742.671 98.7004 741.471 99.9004C740.471 101.1 738.571 102.1 735.771 102.9Z" fill="#0F1E13"/>
<path d="M608.221 144.3C608.221 148.9 609.121 152.4 610.921 154.8C612.721 157.2 615.421 158.9 619.021 159.9C622.621 160.9 627.021 161.6 632.221 162C637.621 162.2 643.721 162.6 650.521 163.2C655.521 163.4 658.021 166 658.021 171V202.5C658.021 207.5 655.521 209.9 650.521 209.7C635.921 209.1 623.121 208.1 612.121 206.7C601.321 205.3 592.221 202.4 584.821 198C577.621 193.4 572.221 186.8 568.621 178.2C565.021 169.4 563.221 157.4 563.221 142.2V112.5C563.221 107.5 560.721 105 555.721 105H545.221C540.221 105 537.721 102.5 537.721 97.5V67.5C537.721 62.5 540.221 60 545.221 60H555.721C560.721 60 563.221 57.5 563.221 52.5V40.5C563.221 35.5 565.621 33 570.421 33H600.721C605.721 33 608.221 35.5 608.221 40.5V52.5C608.221 57.5 610.721 60 615.721 60H643.021C648.021 60 650.521 62.5 650.521 67.5V97.5C650.521 102.5 648.021 105 643.021 105H615.721C610.721 105 608.221 107.5 608.221 112.5V144.3Z" fill="#0F1E13"/>
<path d="M453.931 109.5C453.731 111.3 455.431 112.8 459.031 114C462.831 115.2 467.631 116.5 473.431 117.9C479.231 119.1 485.431 120.7 492.031 122.7C498.831 124.5 505.131 127.1 510.931 130.5C516.731 133.9 521.531 138.3 525.331 143.7C529.131 149.1 530.831 156 530.431 164.4C530.231 171.2 528.631 177.6 525.631 183.6C522.631 189.4 518.431 194.5 513.031 198.9C507.631 203.3 501.131 206.8 493.531 209.4C485.931 211.8 477.531 213 468.331 213C457.131 213 446.631 211.2 436.831 207.6C427.231 203.8 417.931 198.5 408.931 191.7C405.131 188.9 405.031 185.5 408.631 181.5L429.931 159.6C430.931 158.6 431.831 157.8 432.631 157.2C433.631 156.6 434.731 156.3 435.931 156.3C437.531 156.3 439.331 157 441.331 158.4C442.131 159 443.131 159.8 444.331 160.8C445.531 161.8 447.131 162.8 449.131 163.8C451.131 164.8 453.531 165.7 456.331 166.5C459.131 167.3 462.431 167.8 466.231 168C472.231 168.2 476.831 167.6 480.031 166.2C483.431 164.6 485.131 163 485.131 161.4C485.331 159.6 483.531 158.2 479.731 157.2C475.931 156.2 471.131 155.1 465.331 153.9C459.731 152.7 453.531 151.2 446.731 149.4C440.131 147.6 433.931 145 428.131 141.6C422.531 138 417.831 133.4 414.031 127.8C410.431 122.2 408.731 115.1 408.931 106.5C409.131 98.8998 410.831 92.0998 414.031 86.0998C417.231 79.8998 421.531 74.6998 426.931 70.4998C432.531 66.2998 439.031 63.0998 446.431 60.8998C453.831 58.4998 461.831 57.2998 470.431 57.2998C482.031 57.2998 492.531 59.0998 501.931 62.6998C511.531 66.2998 520.931 71.5998 530.131 78.5998C534.131 81.5998 534.231 84.9998 530.431 88.7998L509.131 110.7C508.131 111.7 507.131 112.5 506.131 113.1C505.131 113.7 504.031 114 502.831 114C501.031 114 499.331 113.3 497.731 111.9C496.931 111.3 495.931 110.5 494.731 109.5C493.531 108.3 491.931 107.2 489.931 106.2C487.931 105 485.531 104 482.731 103.2C480.131 102.2 476.931 101.6 473.131 101.4C466.131 101.2 461.231 102.2 458.431 104.4C455.631 106.4 454.131 108.1 453.931 109.5Z" fill="#0F1E13"/>
<path d="M404.12 135C404.12 146.2 402.32 156.6 398.72 166.2C395.12 175.8 390.02 184.1 383.42 191.1C376.82 197.9 368.92 203.3 359.72 207.3C350.52 211.1 340.32 213 329.12 213C317.92 213 307.72 211.1 298.52 207.3C289.52 203.3 281.82 197.9 275.42 191.1C269.02 184.1 264.02 175.8 260.42 166.2C257.02 156.6 255.32 146.2 255.32 135C255.32 123.8 257.02 113.4 260.42 103.8C264.02 94.2 269.02 86 275.42 79.2C281.82 72.2 289.52 66.8 298.52 63C307.72 59 317.92 57 329.12 57C340.32 57 350.52 59 359.72 63C368.92 66.8 376.82 72.2 383.42 79.2C390.02 86 395.12 94.2 398.72 103.8C402.32 113.4 404.12 123.8 404.12 135ZM329.42 170.7C333.82 170.7 337.82 169.8 341.42 168C345.02 166 348.12 163.4 350.72 160.2C353.32 157 355.32 153.3 356.72 149.1C358.32 144.7 359.12 140 359.12 135C359.12 125 356.32 117 350.72 111C345.32 105 338.22 102 329.42 102C320.42 102 313.32 105 308.12 111C302.92 117 300.32 125 300.32 135C300.32 145 302.92 153.5 308.12 160.5C313.32 167.3 320.42 170.7 329.42 170.7Z" fill="#0F1E13"/>
<path d="M100.8 135C100.8 125 98.3 117 93.3 111C88.5 105 81.9 102 73.5 102C65.1 102 58.2 105 52.8 111C47.6 117 45 125 45 135V202.5C45 207.5 42.5 210 37.5 210H7.2C2.4 210 0 207.5 0 202.5V67.5C0 62.5 2.4 60 7.2 60H40.2C42.6 60 44.1 60.8 44.7 62.4C53.5 58.8 63.1 57 73.5 57C91.1 57 105.9 61.8 117.9 71.4C119.9 72.8 121.8 73.5 123.6 73.5C125.8 73.5 127.7 72.8 129.3 71.4C141.7 61.8 156.7 57 174.3 57C185.3 57 195.2 59 204 63C213 66.8 220.6 72.2 226.8 79.2C233.2 86 238.1 94.2 241.5 103.8C244.9 113.4 246.6 123.8 246.6 135V202.5C246.6 207.5 244.1 210 239.1 210H209.1C204.1 210 201.6 207.5 201.6 202.5V135C201.6 125 199.1 117 194.1 111C189.3 105 182.7 102 174.3 102C165.9 102 159 105 153.6 111C148.4 117 145.8 125 145.8 135V202.5C145.8 207.5 143.3 210 138.3 210H108.3C103.3 210 100.8 207.5 100.8 202.5V135Z" fill="#0F1E13"/>
<circle cx="329.223" cy="156" r="18" fill="#0F1E13"/>
<circle cx="822.223" cy="156" r="18" fill="#0F1E13"/>
</svg>
